<svg xmlns="http://www.w3.org/2000/svg" viewBox="0 0 1200 1600" width="1200" height="1600">
  <defs>
    <linearGradient id="bg" x1="0%" y1="0%" x2="100%" y2="100%">
      <stop offset="0%" style="stop-color:#0a0e27"/>
      <stop offset="50%" style="stop-color:#111640"/>
      <stop offset="100%" style="stop-color:#0a0e27"/>
    </linearGradient>
    <linearGradient id="header" x1="0%" y1="0%" x2="100%" y2="0%">
      <stop offset="0%" style="stop-color:#6366f1"/>
      <stop offset="50%" style="stop-color:#8b5cf6"/>
      <stop offset="100%" style="stop-color:#a855f7"/>
    </linearGradient>
    <linearGradient id="polarisBar" x1="0%" y1="0%" x2="100%" y2="0%">
      <stop offset="0%" style="stop-color:#6366f1"/>
      <stop offset="100%" style="stop-color:#8b5cf6"/>
    </linearGradient>
    <linearGradient id="accent" x1="0%" y1="0%" x2="100%" y2="0%">
      <stop offset="0%" style="stop-color:#22d3ee"/>
      <stop offset="100%" style="stop-color:#6366f1"/>
    </linearGradient>
    <filter id="glow">
      <feGaussianBlur stdDeviation="3" result="coloredBlur"/>
      <feMerge><feMergeNode in="coloredBlur"/><feMergeNode in="SourceGraphic"/></feMerge>
    </filter>
    <filter id="shadow">
      <feDropShadow dx="0" dy="4" stdDeviation="8" flood-color="#000" flood-opacity="0.4"/>
    </filter>
    <filter id="cardShadow">
      <feDropShadow dx="0" dy="2" stdDeviation="4" flood-color="#000" flood-opacity="0.5"/>
    </filter>
  </defs>

  <!-- Background -->
  <rect width="1200" height="1600" fill="url(#bg)"/>

  <!-- Subtle grid -->
  <g opacity="0.03" stroke="#fff" stroke-width="0.5">
    <line x1="0" y1="40" x2="1200" y2="40"/><line x1="0" y1="80" x2="1200" y2="80"/>
    <line x1="0" y1="120" x2="1200" y2="120"/><line x1="0" y1="160" x2="1200" y2="160"/>
    <line x1="0" y1="200" x2="1200" y2="200"/><line x1="0" y1="240" x2="1200" y2="240"/>
    <line x1="0" y1="280" x2="1200" y2="280"/><line x1="0" y1="320" x2="1200" y2="320"/>
    <line x1="0" y1="360" x2="1200" y2="360"/><line x1="0" y1="400" x2="1200" y2="400"/>
    <line x1="0" y1="440" x2="1200" y2="440"/><line x1="0" y1="480" x2="1200" y2="480"/>
    <line x1="0" y1="520" x2="1200" y2="520"/><line x1="0" y1="560" x2="1200" y2="560"/>
    <line x1="0" y1="600" x2="1200" y2="600"/><line x1="0" y1="640" x2="1200" y2="640"/>
    <line x1="0" y1="680" x2="1200" y2="680"/><line x1="0" y1="720" x2="1200" y2="720"/>
    <line x1="0" y1="760" x2="1200" y2="760"/><line x1="0" y1="800" x2="1200" y2="800"/>
    <line x1="0" y1="840" x2="1200" y2="840"/><line x1="0" y1="880" x2="1200" y2="880"/>
    <line x1="0" y1="920" x2="1200" y2="920"/><line x1="0" y1="960" x2="1200" y2="960"/>
    <line x1="0" y1="1000" x2="1200" y2="1000"/><line x1="0" y1="1040" x2="1200" y2="1040"/>
    <line x1="0" y1="1080" x2="1200" y2="1080"/><line x1="0" y1="1120" x2="1200" y2="1120"/>
    <line x1="0" y1="1160" x2="1200" y2="1160"/><line x1="0" y1="1200" x2="1200" y2="1200"/>
    <line x1="0" y1="1240" x2="1200" y2="1240"/><line x1="0" y1="1280" x2="1200" y2="1280"/>
    <line x1="0" y1="1320" x2="1200" y2="1320"/><line x1="0" y1="1360" x2="1200" y2="1360"/>
    <line x1="0" y1="1400" x2="1200" y2="1400"/><line x1="0" y1="1440" x2="1200" y2="1440"/>
    <line x1="40" y1="0" x2="40" y2="1600"/><line x1="80" y1="0" x2="80" y2="1600"/>
    <line x1="120" y1="0" x2="120" y2="1600"/><line x1="160" y1="0" x2="160" y2="1600"/>
    <line x1="200" y1="0" x2="200" y2="1600"/><line x1="240" y1="0" x2="240" y2="1600"/>
    <line x1="280" y1="0" x2="280" y2="1600"/><line x1="320" y1="0" x2="320" y2="1600"/>
    <line x1="360" y1="0" x2="360" y2="1600"/><line x1="400" y1="0" x2="400" y2="1600"/>
    <line x1="440" y1="0" x2="440" y2="1600"/><line x1="480" y1="0" x2="480" y2="1600"/>
    <line x1="520" y1="0" x2="520" y2="1600"/><line x1="560" y1="0" x2="560" y2="1600"/>
    <line x1="600" y1="0" x2="600" y2="1600"/><line x1="640" y1="0" x2="640" y2="1600"/>
    <line x1="680" y1="0" x2="680" y2="1600"/><line x1="720" y1="0" x2="720" y2="1600"/>
    <line x1="760" y1="0" x2="760" y2="1600"/><line x1="800" y1="0" x2="800" y2="1600"/>
    <line x1="840" y1="0" x2="840" y2="1600"/><line x1="880" y1="0" x2="880" y2="1600"/>
    <line x1="920" y1="0" x2="920" y2="1600"/><line x1="960" y1="0" x2="960" y2="1600"/>
    <line x1="1000" y1="0" x2="1000" y2="1600"/><line x1="1040" y1="0" x2="1040" y2="1600"/>
    <line x1="1080" y1="0" x2="1080" y2="1600"/><line x1="1120" y1="0" x2="1120" y2="1600"/>
    <line x1="1160" y1="0" x2="1160" y2="1600"/>
  </g>

  <!-- Stars -->
  <circle cx="100" cy="80" r="1.5" fill="#fff" opacity="0.6"/>
  <circle cx="350" cy="45" r="1" fill="#fff" opacity="0.4"/>
  <circle cx="600" cy="120" r="1.5" fill="#fff" opacity="0.5"/>
  <circle cx="850" cy="60" r="1" fill="#fff" opacity="0.7"/>
  <circle cx="1050" cy="90" r="1.5" fill="#fff" opacity="0.5"/>
  <circle cx="200" cy="150" r="1" fill="#fff" opacity="0.3"/>
  <circle cx="700" cy="30" r="1.5" fill="#fff" opacity="0.6"/>
  <circle cx="950" cy="140" r="1" fill="#fff" opacity="0.4"/>

  <!-- Header -->
  <rect x="0" y="0" width="1200" height="200" fill="url(#header)" opacity="0.15"/>
  <text x="600" y="65" text-anchor="middle" font-family="sans-serif" font-size="16" fill="#a5b4fc" letter-spacing="6">AUTONOMOUS MULTI-AGENT FRAMEWORK</text>
  <text x="600" y="115" text-anchor="middle" font-family="sans-serif" font-size="56" font-weight="bold" fill="#fff" filter="url(#glow)">POLARIS AGENT</text>
  <text x="600" y="155" text-anchor="middle" font-family="sans-serif" font-size="20" fill="#c4b5fd">OODA 循环 · DAG 执行 · 多智能体协作 · MCP + A2A 双协议</text>

  <!-- Badges -->
  <rect x="420" y="170" width="120" height="28" rx="14" fill="#6366f1" opacity="0.3"/>
  <text x="480" y="189" text-anchor="middle" font-family="sans-serif" font-size="12" fill="#a5b4fc">v1.2.0</text>
  <rect x="555" y="170" width="100" height="28" rx="14" fill="#22d3ee" opacity="0.2"/>
  <text x="605" y="189" text-anchor="middle" font-family="sans-serif" font-size="12" fill="#67e8f9">Apache 2.0</text>
  <rect x="670" y="170" width="110" height="28" rx="14" fill="#34d399" opacity="0.2"/>
  <text x="725" y="189" text-anchor="middle" font-family="sans-serif" font-size="12" fill="#6ee7b7">Python 3.11+</text>

  <!-- ── Section 1: 竞品对比表 ── -->
  <text x="600" y="270" text-anchor="middle" font-family="sans-serif" font-size="28" font-weight="bold" fill="#fff">🏆 主流智能体框架横向对比</text>

  <!-- Table Header -->
  <g filter="url(#shadow)">
    <rect x="40" y="300" width="1120" height="44" rx="8" fill="#1e1b4b"/>
    <text x="200" y="328" text-anchor="middle" font-family="sans-serif" font-size="14" font-weight="bold" fill="#c4b5fd">特性</text>
    <text x="380" y="328" text-anchor="middle" font-family="sans-serif" font-size="14" font-weight="bold" fill="#fbbf24">Polaris Agent</text>
    <text x="560" y="328" text-anchor="middle" font-family="sans-serif" font-size="14" font-weight="bold" fill="#94a3b8">LangChain</text>
    <text x="720" y="328" text-anchor="middle" font-family="sans-serif" font-size="14" font-weight="bold" fill="#94a3b8">CrewAI</text>
    <text x="880" y="328" text-anchor="middle" font-family="sans-serif" font-size="14" font-weight="bold" fill="#94a3b8">AutoGPT</text>
    <text x="1040" y="328" text-anchor="middle" font-family="sans-serif" font-size="14" font-weight="bold" fill="#94a3b8">MetaGPT</text>
  </g>

  <!-- Table Rows -->
  <!-- Row: Execution Model -->
  <g>
    <rect x="40" y="348" width="1120" height="44" rx="0" fill="#111640"/>
    <text x="200" y="376" text-anchor="middle" font-family="sans-serif" font-size="13" fill="#e2e8f0">执行模型</text>
    <text x="380" y="376" text-anchor="middle" font-family="sans-serif" font-size="13" fill="#22d3ee" font-weight="bold">OODA + DAG</text>
    <text x="560" y="376" text-anchor="middle" font-family="sans-serif" font-size="13" fill="#94a3b8">Chain / Graph</text>
    <text x="720" y="376" text-anchor="middle" font-family="sans-serif" font-size="13" fill="#94a3b8">Sequential</text>
    <text x="880" y="376" text-anchor="middle" font-family="sans-serif" font-size="13" fill="#94a3b8">ReAct Loop</text>
    <text x="1040" y="376" text-anchor="middle" font-family="sans-serif" font-size="13" fill="#94a3b8">SOP Pipeline</text>
  </g>
  <!-- Row: Multi-Agent -->
  <g>
    <rect x="40" y="392" width="1120" height="44" rx="0" fill="#0f1330"/>
    <text x="200" y="420" text-anchor="middle" font-family="sans-serif" font-size="13" fill="#e2e8f0">多智能体协作</text>
    <text x="380" y="420" text-anchor="middle" font-family="sans-serif" font-size="13" fill="#22d3ee" font-weight="bold">Blackboard 黑板模式</text>
    <text x="560" y="420" text-anchor="middle" font-family="sans-serif" font-size="13" fill="#94a3b8">工具链编排</text>
    <text x="720" y="420" text-anchor="middle" font-family="sans-serif" font-size="13" fill="#fbbf24">Role-based</text>
    <text x="880" y="420" text-anchor="middle" font-family="sans-serif" font-size="13" fill="#f87171">单 Agent</text>
    <text x="1040" y="420" text-anchor="middle" font-family="sans-serif" font-size="13" fill="#fbbf24">Role-based</text>
  </g>
  <!-- Row: Protocol -->
  <g>
    <rect x="40" y="436" width="1120" height="44" rx="0" fill="#111640"/>
    <text x="200" y="464" text-anchor="middle" font-family="sans-serif" font-size="13" fill="#e2e8f0">标准协议</text>
    <text x="380" y="464" text-anchor="middle" font-family="sans-serif" font-size="13" fill="#22d3ee" font-weight="bold">MCP + A2A 双协议</text>
    <text x="560" y="464" text-anchor="middle" font-family="sans-serif" font-size="13" fill="#94a3b8">LCEL</text>
    <text x="720" y="464" text-anchor="middle" font-family="sans-serif" font-size="13" fill="#f87171">无</text>
    <text x="880" y="464" text-anchor="middle" font-family="sans-serif" font-size="13" fill="#94a3b8">A2A 支持中</text>
    <text x="1040" y="464" text-anchor="middle" font-family="sans-serif" font-size="13" fill="#f87171">无</text>
  </g>
  <!-- Row: Safety -->
  <g>
    <rect x="40" y="480" width="1120" height="44" rx="0" fill="#0f1330"/>
    <text x="200" y="508" text-anchor="middle" font-family="sans-serif" font-size="13" fill="#e2e8f0">安全对齐</text>
    <text x="380" y="508" text-anchor="middle" font-family="sans-serif" font-size="13" fill="#22d3ee" font-weight="bold">5 规则 + L0-L4 自主级</text>
    <text x="560" y="508" text-anchor="middle" font-family="sans-serif" font-size="13" fill="#f87171">无内置</text>
    <text x="720" y="508" text-anchor="middle" font-family="sans-serif" font-size="13" fill="#f87171">无内置</text>
    <text x="880" y="508" text-anchor="middle" font-family="sans-serif" font-size="13" fill="#94a3b8">基础过滤</text>
    <text x="1040" y="508" text-anchor="middle" font-family="sans-serif" font-size="13" fill="#f87171">无内置</text>
  </g>
  <!-- Row: Memory -->
  <g>
    <rect x="40" y="524" width="1120" height="44" rx="0" fill="#111640"/>
    <text x="200" y="552" text-anchor="middle" font-family="sans-serif" font-size="13" fill="#e2e8f0">记忆系统</text>
    <text x="380" y="552" text-anchor="middle" font-family="sans-serif" font-size="13" fill="#22d3ee" font-weight="bold">三层: 工作/情景/语义</text>
    <text x="560" y="552" text-anchor="middle" font-family="sans-serif" font-size="13" fill="#94a3b8">Buffer / Summary</text>
    <text x="720" y="552" text-anchor="middle" font-family="sans-serif" font-size="13" fill="#fbbf24">短期记忆</text>
    <text x="880" y="552" text-anchor="middle" font-family="sans-serif" font-size="13" fill="#fbbf24">文件存储</text>
    <text x="1040" y="552" text-anchor="middle" font-family="sans-serif" font-size="13" fill="#fbbf24">短期记忆</text>
  </g>
  <!-- Row: Failure Handling -->
  <g>
    <rect x="40" y="568" width="1120" height="44" rx="0" fill="#0f1330"/>
    <text x="200" y="596" text-anchor="middle" font-family="sans-serif" font-size="13" fill="#e2e8f0">故障处理</text>
    <text x="380" y="596" text-anchor="middle" font-family="sans-serif" font-size="13" fill="#22d3ee" font-weight="bold">熔断 + 重试 + 死信队列</text>
    <text x="560" y="596" text-anchor="middle" font-family="sans-serif" font-size="13" fill="#94a3b8">基础重试</text>
    <text x="720" y="596" text-anchor="middle" font-family="sans-serif" font-size="13" fill="#f87171">无</text>
    <text x="880" y="596" text-anchor="middle" font-family="sans-serif" font-size="13" fill="#f87171">无</text>
    <text x="1040" y="596" text-anchor="middle" font-family="sans-serif" font-size="13" fill="#f87171">无</text>
  </g>
  <!-- Row: Local LLM -->
  <g>
    <rect x="40" y="612" width="1120" height="44" rx="0" fill="#111640"/>
    <text x="200" y="640" text-anchor="middle" font-family="sans-serif" font-size="13" fill="#e2e8f0">本地模型支持</text>
    <text x="380" y="640" text-anchor="middle" font-family="sans-serif" font-size="13" fill="#22d3ee" font-weight="bold">Ollama/vLLM/llama.cpp</text>
    <text x="560" y="640" text-anchor="middle" font-family="sans-serif" font-size="13" fill="#fbbf24">Ollama 适配</text>
    <text x="720" y="640" text-anchor="middle" font-family="sans-serif" font-size="13" fill="#fbbf24">部分支持</text>
    <text x="880" y="640" text-anchor="middle" font-family="sans-serif" font-size="13" fill="#f87171">仅云端</text>
    <text x="1040" y="640" text-anchor="middle" font-family="sans-serif" font-size="13" fill="#fbbf24">部分支持</text>
  </g>
  <!-- Row: Docker -->
  <g>
    <rect x="40" y="656" width="1120" height="44" rx="0" fill="#0f1330"/>
    <text x="200" y="684" text-anchor="middle" font-family="sans-serif" font-size="13" fill="#e2e8f0">部署方式</text>
    <text x="380" y="684" text-anchor="middle" font-family="sans-serif" font-size="13" fill="#22d3ee" font-weight="bold">Docker 多架构 amd64/arm64</text>
    <text x="560" y="684" text-anchor="middle" font-family="sans-serif" font-size="13" fill="#fbbf24">Docker 支持</text>
    <text x="720" y="684" text-anchor="middle" font-family="sans-serif" font-size="13" fill="#94a3b8">CLI + pip</text>
    <text x="880" y="684" text-anchor="middle" font-family="sans-serif" font-size="13" fill="#fbbf24">Docker 支持</text>
    <text x="1040" y="684" text-anchor="middle" font-family="sans-serif" font-size="13" fill="#94a3b8">CLI + pip</text>
  </g>
  <!-- Row: One-command Deploy -->
  <g>
    <rect x="40" y="700" width="1120" height="44" rx="0" fill="#111640"/>
    <text x="200" y="728" text-anchor="middle" font-family="sans-serif" font-size="13" fill="#e2e8f0">一行部署</text>
    <text x="380" y="728" text-anchor="middle" font-family="sans-serif" font-size="13" fill="#22d3ee" font-weight="bold">curl &#124; python3 ✅</text>
    <text x="560" y="728" text-anchor="middle" font-family="sans-serif" font-size="13" fill="#94a3b8">pip install</text>
    <text x="720" y="728" text-anchor="middle" font-family="sans-serif" font-size="13" fill="#94a3b8">pip install</text>
    <text x="880" y="728" text-anchor="middle" font-family="sans-serif" font-size="13" fill="#94a3b8">pip install</text>
    <text x="1040" y="728" text-anchor="middle" font-family="sans-serif" font-size="13" fill="#94a3b8">pip install</text>
  </g>
  <!-- Row: Observability -->
  <g>
    <rect x="40" y="744" width="1120" height="44" rx="0" fill="#0f1330"/>
    <text x="200" y="772" text-anchor="middle" font-family="sans-serif" font-size="13" fill="#e2e8f0">可观测性</text>
    <text x="380" y="772" text-anchor="middle" font-family="sans-serif" font-size="13" fill="#22d3ee" font-weight="bold">Tracing + Metrics</text>
    <text x="560" y="772" text-anchor="middle" font-family="sans-serif" font-size="13" fill="#94a3b8">LangSmith</text>
    <text x="720" y="772" text-anchor="middle" font-family="sans-serif" font-size="13" fill="#f87171">无</text>
    <text x="880" y="772" text-anchor="middle" font-family="sans-serif" font-size="13" fill="#f87171">无</text>
    <text x="1040" y="772" text-anchor="middle" font-family="sans-serif" font-size="13" fill="#f87171">无</text>
  </g>

  <!-- ── Section 2: Polaris 独有亮点 ── -->
  <text x="600" y="855" text-anchor="middle" font-family="sans-serif" font-size="28" font-weight="bold" fill="#fff">✨ Polaris Agent 独有亮点</text>

  <!-- Feature cards row 1 -->
  <g filter="url(#cardShadow)">
    <rect x="40" y="890" width="350" height="200" rx="12" fill="#1e1b4b" stroke="#6366f1" stroke-width="1"/>
    <circle cx="75" cy="930" r="18" fill="#6366f1" opacity="0.2"/>
    <text x="75" y="936" text-anchor="middle" font-size="18" fill="#6366f1">🔄</text>
    <text x="110" y="936" font-family="sans-serif" font-size="16" font-weight="bold" fill="#fff">OODA 军用决策循环</text>
    <text x="60" y="970" font-family="sans-serif" font-size="12" fill="#cbd5e1">
      <tspan x="60" dy="0">Observe → Orient → Decide → Act</tspan>
      <tspan x="60" dy="22">源自战斗机飞行员决策模型</tspan>
      <tspan x="60" dy="22">内置置信度评估 + 计划修正</tspan>
      <tspan x="60" dy="22">比 ReAct 循环更灵活高效</tspan>
    </text>
  </g>

  <g filter="url(#cardShadow)">
    <rect x="425" y="890" width="350" height="200" rx="12" fill="#1e1b4b" stroke="#8b5cf6" stroke-width="1"/>
    <circle cx="460" cy="930" r="18" fill="#8b5cf6" opacity="0.2"/>
    <text x="460" y="936" text-anchor="middle" font-size="18" fill="#8b5cf6">🧠</text>
    <text x="495" y="936" font-family="sans-serif" font-size="16" font-weight="bold" fill="#fff">Blackboard 黑板协作</text>
    <text x="445" y="970" font-family="sans-serif" font-size="12" fill="#cbd5e1">
      <tspan x="445" dy="0">多 Agent 共享知识黑板</tspan>
      <tspan x="445" dy="22">发布/订阅 + 共识达成</tspan>
      <tspan x="445" dy="22">版本快照 + 置信度加权</tspan>
      <tspan x="445" dy="22">线程安全，支持 eviction</tspan>
    </text>
  </g>

  <g filter="url(#cardShadow)">
    <rect x="810" y="890" width="350" height="200" rx="12" fill="#1e1b4b" stroke="#a855f7" stroke-width="1"/>
    <circle cx="845" cy="930" r="18" fill="#a855f7" opacity="0.2"/>
    <text x="845" y="936" text-anchor="middle" font-size="18" fill="#a855f7">🔌</text>
    <text x="880" y="936" font-family="sans-serif" font-size="16" font-weight="bold" fill="#fff">MCP + A2A 双协议</text>
    <text x="830" y="970" font-family="sans-serif" font-size="12" fill="#cbd5e1">
      <tspan x="830" dy="0">MCP: 工具/资源/提示标准化</tspan>
      <tspan x="830" dy="22">A2A: Agent Card + Task 互通</tspan>
      <tspan x="830" dy="22">完全遵循 v2025-11-25 规范</tspan>
      <tspan x="830" dy="22">生态互通，不锁定厂商</tspan>
    </text>
  </g>

  <!-- Feature cards row 2 -->
  <g filter="url(#cardShadow)">
    <rect x="40" y="1115" width="350" height="200" rx="12" fill="#1e1b4b" stroke="#22d3ee" stroke-width="1"/>
    <circle cx="75" cy="1155" r="18" fill="#22d3ee" opacity="0.2"/>
    <text x="75" y="1161" text-anchor="middle" font-size="18" fill="#22d3ee">🛡️</text>
    <text x="110" y="1161" font-family="sans-serif" font-size="16" font-weight="bold" fill="#fff">5 层安全对齐</text>
    <text x="60" y="1195" font-family="sans-serif" font-size="12" fill="#cbd5e1">
      <tspan x="60" dy="0">内容安全 + PII 检测</tspan>
      <tspan x="60" dy="22">Prompt 注入防护</tspan>
      <tspan x="60" dy="22">代码执行沙箱</tspan>
      <tspan x="60" dy="22">L0-L4 自主等级逐级放权</tspan>
    </text>
  </g>

  <g filter="url(#cardShadow)">
    <rect x="425" y="1115" width="350" height="200" rx="12" fill="#1e1b4b" stroke="#34d399" stroke-width="1"/>
    <circle cx="460" cy="1155" r="18" fill="#34d399" opacity="0.2"/>
    <text x="460" y="1161" text-anchor="middle" font-size="18" fill="#34d399">⚡</text>
    <text x="495" y="1161" font-family="sans-serif" font-size="16" font-weight="bold" fill="#fff">生产级可靠性</text>
    <text x="445" y="1195" font-family="sans-serif" font-size="12" fill="#cbd5e1">
      <tspan x="445" dy="0">Circuit Breaker 熔断器</tspan>
      <tspan x="445" dy="22">Exponential Backoff 重试</tspan>
      <tspan x="445" dy="22">Dead Letter Queue 死信队列</tspan>
      <tspan x="445" dy="22">Entropy Audit 输出质量校验</tspan>
    </text>
  </g>

  <g filter="url(#cardShadow)">
    <rect x="810" y="1115" width="350" height="200" rx="12" fill="#1e1b4b" stroke="#fbbf24" stroke-width="1"/>
    <circle cx="845" cy="1155" r="18" fill="#fbbf24" opacity="0.2"/>
    <text x="845" y="1161" text-anchor="middle" font-size="18" fill="#fbbf24">📦</text>
    <text x="880" y="1161" font-family="sans-serif" font-size="16" font-weight="bold" fill="#fff">零门槛上手</text>
    <text x="830" y="1195" font-family="sans-serif" font-size="12" fill="#cbd5e1">
      <tspan x="830" dy="0">一行命令安装: curl | python3</tspan>
      <tspan x="830" dy="22">Docker Compose 一键启动</tspan>
      <tspan x="830" dy="22">26 个内置工具开箱即用</tspan>
      <tspan x="830" dy="22">无需 API Key 即可本地运行</tspan>
    </text>
  </g>

  <!-- ── Section 3: 适用场景 ── -->
  <text x="600" y="1380" text-anchor="middle" font-family="sans-serif" font-size="28" font-weight="bold" fill="#fff">🎯 最佳应用场景</text>

  <g>
    <rect x="40" y="1410" width="265" height="60" rx="10" fill="#1e1b4b" stroke="#6366f1" stroke-width="1"/>
    <text x="172" y="1438" text-anchor="middle" font-family="sans-serif" font-size="14" fill="#fff">🏢 企业自动化</text>
    <text x="172" y="1458" text-anchor="middle" font-family="sans-serif" font-size="11" fill="#94a3b8">RPA / 数据处理</text>
  </g>
  <g>
    <rect x="320" y="1410" width="265" height="60" rx="10" fill="#1e1b4b" stroke="#8b5cf6" stroke-width="1"/>
    <text x="452" y="1438" text-anchor="middle" font-family="sans-serif" font-size="14" fill="#fff">🔬 深度研究</text>
    <text x="452" y="1458" text-anchor="middle" font-family="sans-serif" font-size="11" fill="#94a3b8">多源信息聚合</text>
  </g>
  <g>
    <rect x="600" y="1410" width="265" height="60" rx="10" fill="#1e1b4b" stroke="#22d3ee" stroke-width="1"/>
    <text x="732" y="1438" text-anchor="middle" font-family="sans-serif" font-size="14" fill="#fff">💻 代码工程</text>
    <text x="732" y="1458" text-anchor="middle" font-family="sans-serif" font-size="11" fill="#94a3b8">自动化开发运维</text>
  </g>
  <g>
    <rect x="880" y="1410" width="280" height="60" rx="10" fill="#1e1b4b" stroke="#fbbf24" stroke-width="1"/>
    <text x="1020" y="1438" text-anchor="middle" font-family="sans-serif" font-size="14" fill="#fff">🎓 本地部署</text>
    <text x="1020" y="1458" text-anchor="middle" font-family="sans-serif" font-size="11" fill="#94a3b8">隐私优先 / 离线</text>
  </g>

  <!-- ── Footer ── -->
  <rect x="0" y="1520" width="1200" height="80" fill="#6366f1" opacity="0.1"/>
  <text x="600" y="1550" text-anchor="middle" font-family="sans-serif" font-size="13" fill="#64748b">GitHub: github.com/ZBcxy/polaris-agent · Apache 2.0 License · Python 3.11+</text>
  <text x="600" y="1575" text-anchor="middle" font-family="sans-serif" font-size="13" fill="#64748b">🚀 curl -fsSL https://raw.githubusercontent.com/ZBcxy/polaris-agent/main/install.py | python3 -</text>
</svg>
